<?xml version="1.0" encoding="UTF-8"?><svg id="a" xmlns="http://www.w3.org/2000/svg" viewBox="0 0 35.4 36.2"><defs><style>.e{fill:#3e2f72;}</style></defs><g id="b"><g id="c"><path id="d" class="e" d="M7.5,5.2v1.8l-2.4,1v1.7l-1,.4v-1.6l-3.3,1.5v1.3l1.5-.6v1.5l2.8-.8v1.7l-3.5,.8v-1.4l-.7,.2v1.3l-.7,.1v-5.2l7.3-3.7Zm1.4,7v1.9l1.5-.2v2.1l1.7-.1v-4.4l-3.2,.7Zm16.8,9.8v2l5.4-1.2v1.6l-5.4,1.6v2l8.3-3.1v-1.4l-1.8,.5v-1.5l2.5-.6v4l-16.9,7.6v-5.2l-3.7-1v4.7l-1.9-.8v2.2l5.6,2.8,17.5-9.2v-6.4l-9.6,1.4Zm6.5-8.5v1.5l.9,.1v1.4l.8,.1v-2.8l-1.7-.3Zm2.5-2.2v6.7h-2.5v1.5l3.2-.2v-7.7l-.7-.3Zm-2.5-3.9v3l-2.2-.8v3.4l1.2,.2v-1.6l2.8,.8v-1.4l-.9-.3v-1.5l2.2,1v-1.3l-3.1-1.5Zm-3.5,1.7v-1.8l2.4,1.1v-1.6L17.7,0,8.9,4.4v3.9l-2.6,1v3.5l1.2-.3v-1.8l4.6-1.4v-2.2l-1.7,.6v-2l7.3-3.1v2.6l-3.7,1.2v11.6h-5.1v1.9l3.2,.3v2.2l-8.9-1.4v1.5l4.3,1v1.8l-4.3-1.3v1.5l1.9,.7v1.7L.8,25.9v-1.2l1.5,.6v-4.4l-.8-.1v2.8l-.7-.2v-6.7l2.3-.2v1.5H1.5v1.4l2.5,.2v-3.2l2.1-.1v3.5l1.2,.1v-5.5L0,15.5v11.6l10.2,5.5v-2.1l-4.1-1.9v-1.7l5.8,2.2v-2.2l-3.2-1v-1.9l5.1,1.2v-4.7l3.7,.3v5.2l2.2-.5v-7.2h-2.2v-2.6l7.9,.5v2h-3.6v2.3l5.2-.4v-3.8l2.7,.2v3.3l1.2-.1v-4.8l-13.4-1.9v-2.6l2.2,.5v-2.4l3.9,1.1v2.1l4.7,1v-1.8l-3-.9v-2l-5.7-2.1V3.5l7.6,3.2v1.9l1.5,.5Zm-6.6,13.5v4.5l-2.1,.6v2.4l3.9-1.4v-6.4l-1.8,.3Z"/></g></g></svg>